<?xml version="1.0" encoding="utf-8"?>
<!-- Generator: Adobe Illustrator 17.1.0, SVG Export Plug-In . SVG Version: 6.00 Build 0)  -->
<!DOCTYPE svg PUBLIC "-//W3C//DTD SVG 1.1//EN" "http://www.w3.org/Graphics/SVG/1.1/DTD/svg11.dtd">
<svg version="1.1" id="Capa_1" xmlns="http://www.w3.org/2000/svg" xmlns:xlink="http://www.w3.org/1999/xlink" x="0px" y="0px"
	 viewBox="0 0 1000 1000" enable-background="new 0 0 1000 1000" xml:space="preserve">
<circle fill="grey" cx="494.2" cy="867.7" r="112.3"/>
<path fill="black" d="M494.2,755.3c-58.5,0-106.6,44.7-111.8,101.9l122.3,122.3c57.1-5.3,101.9-53.3,101.9-111.8
	C606.6,805.6,556.3,755.3,494.2,755.3z"/>
<path fill="grey" d="M868.1,691.8H131.9c-50.3,0-91,40.8-91,91c0,50.3,40.8,91,91,91h736.2c50.3,0,91-40.8,91-91
	C959.1,732.5,918.4,691.8,868.1,691.8z"/>
<path fill="grey" d="M815.4,623.1V440.6c0-147.6-101.4-271.5-238.3-305.9c7.8-13.3,12.3-28.8,12.3-45.3C589.4,40.1,549.4,0,500,0
	s-89.5,40.1-89.5,89.5c0,16.5,4.5,32,12.3,45.3C286,169.2,184.6,293,184.6,440.6v182.5c0,39.5-32,71.5-71.5,71.5h773.8
	C847.4,694.6,815.4,662.6,815.4,623.1z M500,125.2c-19.8,0-35.8-16-35.8-35.8c0-19.8,16-35.8,35.8-35.8s35.8,16,35.8,35.8
	C535.8,109.2,519.7,125.2,500,125.2z"/>
<path fill="transparent" d="M42,800.9c6.9,43.5,44.5,76.7,89.9,72.6h736.2c45.4,4.1,83-29.1,89.9-72.6H42z"/>
<circle fill="#F46A0C" cx="627.3" cy="84.6" r="74.2"/>
<rect x="289.5" y="873.9" fill="#FFFFFF" width="421.5" height="21"/>
</svg>
