<svg id="email_icon_" data-name="email icon " xmlns="http://www.w3.org/2000/svg" viewBox="0 0 28.63 22.904">
  <g id="Rounded" transform="translate(0 0)">
    <g id="Content" transform="translate(0 0)">
      <g id="_-Round-_-Content-_-mail" data-name="-Round-/-Content-/-mail" transform="translate(0)">
        <g id="Group_87" data-name="Group 87" transform="translate(0)">
          <path id="_Icon-Color" data-name="🔹Icon-Color" d="M27.767,4H4.863A2.871,2.871,0,0,0,2,6.863V24.041A2.871,2.871,0,0,0,4.863,26.9h22.9a2.871,2.871,0,0,0,2.863-2.863V6.863A2.871,2.871,0,0,0,27.767,4Zm-.573,6.084-9.362,5.855a2.835,2.835,0,0,1-3.035,0L5.436,10.084A1.215,1.215,0,1,1,6.724,8.022l9.591,6,9.591-6a1.215,1.215,0,1,1,1.288,2.061Z" transform="translate(-2 -4)" fill="#8b8b8b" fill-rule="evenodd"/>
        </g>
      </g>
    </g>
  </g>
</svg>
