<svg xmlns="http://www.w3.org/2000/svg" width="35.473" height="35.463" viewBox="0 0 35.473 35.463">
  <path id="Op_component_1" data-name="Op component 1" d="M318.941,378.971v15.766a1.97,1.97,0,1,1-3.941,0V378.971a1.97,1.97,0,1,1,3.941,0Z" transform="translate(-299.23 -377)" fill="#0609d4"/>
  <path id="Op_component_2" data-name="Op component 2" d="M334.864,380.145a1.98,1.98,0,0,1,2.837.039,17.524,17.524,0,0,1,4.768,12.042,17.742,17.742,0,0,1-18.3,17.737A17.922,17.922,0,0,1,307,391.733a17.583,17.583,0,0,1,4.788-11.549,1.952,1.952,0,1,1,2.837,2.681,13.779,13.779,0,0,0,10.285,23.156,13.96,13.96,0,0,0,13.615-14.13,13.53,13.53,0,0,0-3.684-9.006,1.951,1.951,0,0,1,.02-2.739Z" transform="translate(-306.996 -374.508)" fill="#0609d4"/>
</svg>
