<svg
  width="25"
  height="6"
  viewBox="0 0 25 6"
  fill="none"
  xmlns="http://www.w3.org/2000/svg"
>
  <g opacity="0.7">
    <path
      d="M6.00032 2.99856C6.00032 1.52983 4.80499 0.333008 3.33366 0.333008C1.86454 0.333008 0.666992 1.52983 0.666992 2.99856C0.666992 4.46951 1.86454 5.66633 3.33366 5.66633C4.80499 5.66633 6.00032 4.46951 6.00032 2.99856Z"
      fill="#707070"
    />
    <path
      d="M15.3334 2.99856C15.3334 1.52983 14.1381 0.333008 12.6668 0.333008C11.1977 0.333008 10.0001 1.52983 10.0001 2.99856C10.0001 4.46951 11.1977 5.66633 12.6668 5.66633C14.1381 5.66633 15.3334 4.46951 15.3334 2.99856Z"
      fill="#707070"
    />
    <path
      d="M24.6671 2.99856C24.6671 1.52983 23.4717 0.333008 22.0004 0.333008C20.5313 0.333008 19.3337 1.52983 19.3337 2.99856C19.3337 4.46951 20.5313 5.66633 22.0004 5.66633C23.4717 5.66633 24.6671 4.46951 24.6671 2.99856Z"
      fill="#707070"
    />
  </g>
</svg>