<svg xmlns="http://www.w3.org/2000/svg" viewBox="0 0 21.576 28.318">
  <g id="password_icon" data-name="password icon" transform="translate(-57.637 -339)">
    <g id="Icons" transform="translate(57.637 339)">
      <g id="Rounded" transform="translate(0 0)">
        <g id="Action">
          <g id="_-Round-_-Action-_-lock" data-name="-Round-/-Action-/-lock">
            <g id="Group_88" data-name="Group 88">
              <path id="_Icon-Color" data-name="🔹Icon-Color" d="M22.879,10.439H21.53v-2.7a6.742,6.742,0,0,0-13.485,0v2.7H6.7a2.7,2.7,0,0,0-2.7,2.7V26.621a2.7,2.7,0,0,0,2.7,2.7H22.879a2.7,2.7,0,0,0,2.7-2.7V13.136A2.7,2.7,0,0,0,22.879,10.439ZM14.788,22.576a2.7,2.7,0,1,1,2.7-2.7A2.7,2.7,0,0,1,14.788,22.576ZM10.742,10.439v-2.7a4.045,4.045,0,0,1,8.091,0v2.7Z" transform="translate(-4 -1)" fill="#8b8b8b" fill-rule="evenodd"/>
            </g>
          </g>
        </g>
      </g>
    </g>
  </g>
</svg>
